<svg width="512" height="512" viewBox="0 0 512 512" fill="none" xmlns="http://www.w3.org/2000/svg">
    <rect width="512" height="512" fill="#012c40" />
    <path
        d="M382.884 150.605C394.667 138.182 400.559 131.97 400.958 126.638C401.303 122.01 399.525 117.489 396.178 114.474C392.32 111 383.988 111 367.324 111H133.005C125.303 111 121.451 111 118.509 112.58C115.922 113.971 113.818 116.189 112.499 118.917C111 122.019 111 126.079 111 134.2V160.3C111 168.421 111 172.481 112.499 175.583C113.818 178.311 115.922 180.529 118.509 181.92C121.451 183.5 125.303 183.5 133.005 183.5H342.568C345.932 183.5 347.614 183.5 349.197 183.099C350.6 182.744 351.942 182.158 353.172 181.363C354.561 180.467 355.749 179.213 358.128 176.705L382.884 150.605Z"
        fill="#3add85" />
    <path
        d="M150.605 383.036C138.182 394.72 131.97 400.562 126.638 400.958C122.01 401.3 117.489 399.538 114.474 396.219C111 392.393 111 384.131 111 367.607V237.542C111 229.905 111 226.086 112.58 223.168C113.971 220.602 116.189 218.516 118.917 217.208C122.019 215.722 126.079 215.722 134.2 215.722H160.3C168.421 215.722 172.481 215.722 175.583 217.208C178.311 218.516 180.529 220.602 181.92 223.168C183.5 226.086 183.5 229.905 183.5 237.542V343.06C183.5 346.396 183.5 348.063 183.099 349.633C182.744 351.024 182.158 352.355 181.363 353.574C180.467 354.951 179.213 356.129 176.705 358.489L150.605 383.036Z"
        fill="#3add85" />
    <path
        d="M215.722 263.867C215.722 279.905 215.722 287.924 218.894 291.637C221.645 294.859 225.773 296.569 229.997 296.237C234.865 295.853 240.536 290.183 251.876 278.842L278.842 251.876C290.183 240.536 295.853 234.865 296.237 229.997C296.569 225.773 294.859 221.645 291.637 218.894C287.924 215.722 279.905 215.722 263.867 215.722H236.901C229.488 215.722 225.781 215.722 222.95 217.165C220.459 218.434 218.434 220.459 217.165 222.949C215.722 225.781 215.722 229.488 215.722 236.901V263.867Z"
        fill="#3add85" />
</svg>
